<?xml version="1.0" standalone="no"?>
<!DOCTYPE svg PUBLIC "-//W3C//DTD SVG 20010904//EN"
 "http://www.w3.org/TR/2001/REC-SVG-20010904/DTD/svg10.dtd">
<svg version="1.0" xmlns="http://www.w3.org/2000/svg"
 width="724.000000pt" height="724.000000pt" viewBox="0 0 724.000000 724.000000"
 preserveAspectRatio="xMidYMid meet">
<metadata>
Created by potrace 1.14, written by Peter Selinger 2001-2017
</metadata>
<g transform="translate(0.000000,724.000000) scale(0.100000,-0.100000)"
fill="#000000" stroke="none">
<path d="M3555 7183 c-106 -37 -162 -159 -119 -261 68 -165 291 -169 365 -7
26 55 24 112 -6 171 -25 51 -89 103 -130 105 -11 1 -31 2 -45 3 -14 2 -44 -3
-65 -11z"/>
<path d="M6455 7038 c-27 -5 -57 -11 -65 -15 -8 -3 -17 -7 -20 -7 -71 -14
-353 -180 -405 -240 -5 -6 -32 -29 -60 -51 -96 -75 -360 -347 -510 -524 -127
-150 -112 -140 -149 -96 -17 21 -73 81 -123 134 -51 53 -93 99 -93 103 0 5 -4
8 -8 8 -5 0 -31 21 -59 48 -28 26 -67 62 -88 81 -57 51 -244 191 -255 191 -5
0 -10 5 -10 10 0 6 -7 10 -15 10 -8 0 -15 4 -15 8 0 4 -29 24 -65 43 -36 18
-65 37 -65 42 0 4 -4 7 -9 7 -5 0 -55 22 -112 49 -57 27 -149 63 -204 81 -55
17 -107 34 -115 37 -8 3 -34 8 -57 10 -34 3 -43 1 -43 -11 0 -9 12 -18 28 -22
15 -3 41 -10 58 -15 17 -5 40 -11 50 -13 79 -16 288 -105 409 -175 67 -38 167
-102 175 -111 3 -4 28 -22 55 -40 28 -19 55 -39 61 -45 7 -5 31 -26 55 -45
120 -97 419 -396 419 -419 0 -5 7 -11 15 -15 22 -8 18 -27 -11 -61 -14 -16
-38 -45 -52 -64 -15 -19 -42 -52 -60 -75 -46 -59 -44 -55 -92 -121 -25 -33
-48 -62 -51 -65 -3 -3 -68 -90 -144 -195 -76 -104 -142 -191 -147 -193 -4 -2
-8 -8 -8 -12 0 -8 -32 -54 -184 -265 -24 -33 -95 -136 -134 -195 -20 -30 -39
-57 -42 -60 -3 -3 -23 -32 -45 -65 -22 -33 -42 -62 -45 -65 -7 -7 -302 -445
-315 -468 -5 -9 -12 -19 -15 -22 -15 -15 -70 -100 -70 -108 0 -5 -7 -12 -15
-16 -8 -3 -15 -10 -15 -15 0 -5 -38 -65 -84 -134 -46 -68 -85 -130 -88 -138
-3 -9 -13 -1 -28 24 -12 20 -26 37 -31 37 -5 0 -9 5 -9 10 0 9 -35 65 -50 80
-3 3 -14 21 -24 40 -11 19 -25 40 -30 47 -27 31 -52 70 -66 101 -5 12 -14 22
-20 22 -5 0 -10 9 -10 20 0 11 -4 20 -8 20 -4 0 -19 18 -32 40 -14 22 -28 40
-32 40 -5 0 -8 5 -8 11 0 12 -61 102 -72 107 -5 2 -8 8 -8 13 0 11 -42 72 -52
77 -5 2 -8 10 -8 18 0 8 -4 14 -10 14 -5 0 -10 5 -10 11 0 6 -13 28 -28 48
-16 20 -32 44 -35 54 -4 9 -10 17 -16 17 -5 0 -11 8 -15 18 -5 16 -21 43 -39
66 -5 6 -35 49 -67 96 -32 47 -64 90 -69 97 -6 7 -11 17 -11 23 0 6 -7 13 -15
16 -8 4 -15 10 -15 15 0 10 -90 141 -105 151 -5 4 -7 8 -3 8 5 0 1 8 -7 18 -9
9 -93 125 -188 257 -95 132 -178 247 -185 255 -7 8 -36 47 -65 85 -28 39 -56
75 -62 81 -5 7 -19 24 -30 40 -11 15 -45 59 -77 98 -31 39 -53 76 -50 83 27
48 328 357 417 428 28 22 55 45 60 51 47 51 325 230 441 284 38 18 85 39 104
48 19 9 37 17 40 17 3 1 43 13 90 28 47 14 104 31 128 37 43 11 50 18 32 36
-6 6 -11 36 -12 68 l-2 57 -36 -4 c-58 -8 -201 -52 -285 -88 -16 -7 -32 -13
-35 -13 -15 -3 -195 -95 -250 -129 -70 -42 -212 -137 -220 -147 -3 -3 -27 -23
-55 -44 -125 -94 -383 -344 -470 -454 -22 -28 -45 -51 -51 -52 -7 0 -45 39
-85 87 -130 152 -141 165 -309 333 -162 163 -215 211 -335 301 -132 100 -302
183 -398 195 -29 3 -61 7 -73 9 -11 2 -42 -1 -69 -6 -113 -21 -205 -90 -274
-203 -33 -55 -94 -219 -105 -280 -3 -16 -10 -52 -16 -80 -5 -28 -12 -78 -15
-111 -4 -33 -8 -82 -11 -110 -8 -77 -8 -388 0 -505 14 -193 34 -395 50 -490
10 -58 27 -166 31 -205 2 -16 5 -31 6 -32 3 -5 16 -75 25 -138 1 -11 9 -49 18
-84 8 -36 13 -68 10 -72 -2 -4 0 -10 5 -14 5 -3 10 -13 9 -23 0 -9 3 -28 7
-42 3 -14 9 -38 12 -55 3 -16 9 -37 14 -46 4 -9 6 -19 2 -22 -3 -4 -1 -13 5
-20 7 -8 10 -16 7 -18 -2 -3 7 -47 21 -99 14 -52 27 -103 30 -112 2 -10 6 -27
9 -38 12 -47 15 -59 40 -145 14 -49 28 -99 30 -110 3 -12 14 -48 25 -80 12
-33 22 -67 22 -75 0 -8 4 -19 8 -25 4 -5 13 -34 21 -62 13 -53 5 -97 -34 -193
-5 -14 -11 -32 -12 -40 -1 -8 -18 -67 -38 -130 -51 -165 -151 -537 -171 -640
-3 -14 -14 -65 -25 -115 -11 -49 -22 -103 -25 -120 -6 -31 -12 -61 -21 -105
-12 -60 -40 -229 -50 -300 -3 -25 -8 -52 -10 -60 -2 -8 -7 -44 -10 -80 -4 -36
-8 -72 -10 -80 -1 -8 -6 -46 -10 -85 -4 -38 -9 -83 -11 -100 -22 -214 -22
-652 1 -788 3 -18 7 -45 10 -62 3 -16 8 -46 11 -65 10 -68 56 -216 87 -280 90
-189 240 -292 415 -284 189 8 425 142 691 389 157 146 329 330 480 513 l52 62
27 -32 c100 -120 289 -307 417 -413 33 -28 62 -52 65 -55 15 -16 126 -94 200
-141 97 -63 286 -160 345 -179 22 -7 45 -16 50 -20 10 -7 65 -26 101 -35 10
-3 55 -14 98 -25 126 -31 232 -44 361 -44 80 0 244 12 255 19 3 2 23 6 45 9
86 14 299 78 320 97 5 5 15 9 22 9 23 0 205 95 308 160 244 153 493 375 713
635 l32 39 28 -34 c15 -18 34 -40 42 -50 8 -9 40 -46 70 -81 374 -431 712
-704 952 -765 156 -41 282 -9 384 96 73 74 153 259 179 410 42 253 49 548 21
870 -8 88 -24 237 -31 290 -10 76 -17 122 -26 180 -6 36 -13 75 -14 87 -2 11
-6 29 -9 40 -3 10 -8 37 -11 60 -2 23 -9 61 -14 85 -14 60 -21 98 -26 131 -2
16 -11 56 -20 90 -9 34 -19 76 -21 92 -3 17 -7 39 -9 50 -2 11 -4 20 -5 20 -1
0 -3 7 -5 15 -2 8 -7 26 -10 40 -4 14 -8 34 -9 45 -2 11 -4 20 -5 20 -2 0 -4
7 -6 15 -10 42 -16 62 -40 150 -15 52 -27 103 -26 113 0 9 -5 17 -11 17 -5 0
-8 6 -5 14 3 8 3 17 -1 20 -3 4 -7 13 -8 21 -2 15 -22 80 -31 105 -4 8 -5 19
-4 24 1 4 -3 13 -8 20 -5 6 -12 28 -16 49 -4 20 -11 40 -16 43 -5 3 -7 10 -3
15 3 5 0 16 -6 24 -6 8 -9 19 -5 25 3 5 1 10 -4 10 -6 0 -11 16 -11 35 0 19 5
35 11 35 6 0 9 6 6 13 -2 6 4 31 14 55 10 23 19 46 19 50 0 4 13 50 29 102 37
118 73 241 75 257 1 7 5 16 9 19 4 4 7 17 7 29 0 12 3 25 7 28 3 4 8 17 9 29
2 13 14 62 28 111 13 48 22 87 19 87 -3 0 0 7 7 15 7 9 10 18 7 21 -3 3 -2 17
3 30 9 23 12 35 26 102 3 15 16 77 30 137 13 61 27 125 29 144 2 18 7 41 9 50
6 17 13 56 22 111 3 19 7 46 10 60 3 14 7 39 9 55 3 17 9 62 15 100 15 103 20
140 35 283 3 26 8 68 10 92 3 25 7 91 9 147 3 57 6 106 8 110 12 25 -3 435
-19 518 -3 17 -5 37 -5 45 -1 72 -67 301 -111 385 -61 113 -170 215 -247 230
-12 2 -31 7 -41 10 -32 11 -110 12 -164 3z m-5602 -118 c134 -41 289 -141 476
-309 135 -122 314 -306 415 -427 28 -32 57 -66 65 -75 32 -33 61 -69 61 -77 0
-4 -17 -27 -36 -52 -74 -91 -151 -198 -241 -335 -51 -77 -96 -144 -100 -150
-5 -5 -15 -23 -23 -40 -8 -16 -18 -32 -21 -35 -7 -6 -116 -195 -176 -305 -51
-93 -243 -480 -243 -489 0 -4 -13 -34 -29 -69 -47 -98 -114 -258 -112 -265 1
-1 -6 -16 -14 -32 -8 -16 -16 -33 -16 -37 -1 -5 -6 -17 -12 -28 -6 -11 -12
-24 -13 -30 -1 -5 -8 -23 -15 -40 -7 -16 -13 -32 -14 -35 -1 -3 -6 -16 -12
-30 -6 -14 -23 -61 -38 -105 -43 -121 -53 -142 -59 -125 -9 27 -85 285 -92
315 -2 6 -5 19 -8 30 -45 168 -129 518 -141 585 -3 14 -7 36 -10 50 -3 14 -7
36 -10 50 -3 14 -10 50 -16 80 -5 30 -12 68 -14 84 -2 15 -7 35 -9 45 -3 9 -8
39 -11 66 -3 28 -7 61 -10 75 -2 14 -6 41 -9 60 -3 19 -8 58 -12 85 -4 28 -8
66 -9 85 -2 19 -4 35 -5 35 -1 0 -5 39 -16 175 -16 185 -9 677 11 750 2 8 6
31 9 50 3 19 10 50 15 68 5 17 8 32 6 32 -7 0 43 136 70 193 16 31 49 79 75
107 47 50 130 96 155 86 8 -3 17 -1 20 4 8 13 89 3 168 -20z m5792 -19 c93
-41 173 -159 221 -326 10 -33 18 -67 19 -75 1 -8 4 -28 8 -45 7 -31 12 -67 24
-170 14 -119 7 -590 -11 -765 -11 -102 -19 -166 -23 -190 -11 -76 -14 -96 -15
-110 0 -8 -4 -33 -8 -55 -5 -22 -11 -61 -14 -87 -3 -26 -8 -58 -11 -70 -5 -23
-13 -67 -19 -103 -8 -47 -17 -91 -21 -105 -2 -8 -7 -31 -10 -50 -3 -19 -8 -42
-11 -51 -2 -10 -7 -30 -9 -45 -5 -26 -69 -298 -80 -334 -2 -8 -18 -67 -34
-130 -17 -63 -44 -160 -61 -215 -17 -55 -33 -107 -35 -115 -12 -51 -32 -94
-44 -98 -8 -3 -11 0 -7 6 3 6 -3 31 -14 56 -10 25 -16 46 -13 46 4 0 2 5 -5
12 -7 7 -12 20 -12 30 0 10 -4 18 -10 18 -5 0 -7 6 -4 14 3 8 1 17 -5 21 -6 3
-11 15 -11 26 0 10 -5 19 -11 19 -5 0 -8 3 -5 8 2 4 -3 23 -12 42 -20 45 -18
40 -27 78 -4 17 -11 32 -16 32 -5 0 -9 9 -9 19 0 11 -5 23 -10 26 -6 4 -8 10
-5 15 3 5 0 14 -7 22 -7 7 -13 18 -14 23 0 6 -6 22 -12 38 -17 37 -34 82 -33
84 0 2 -8 19 -19 38 -11 20 -20 42 -20 50 0 8 -4 15 -10 15 -5 0 -10 8 -10 18
0 10 -5 23 -12 30 -7 7 -8 12 -3 12 4 0 0 9 -10 20 -10 11 -15 20 -10 20 4 0
1 7 -6 16 -7 9 -14 23 -15 32 -2 8 -9 19 -16 23 -7 5 -9 9 -5 9 5 0 -1 17 -11
38 -49 94 -112 228 -111 236 0 5 -6 13 -15 18 -9 5 -16 18 -16 28 0 11 -4 20
-8 20 -5 0 -14 16 -22 35 -8 19 -17 35 -22 35 -4 0 -8 9 -8 20 0 11 -4 20 -10
20 -5 0 -10 9 -10 20 0 11 -4 20 -10 20 -5 0 -10 7 -10 15 0 7 -8 19 -17 24
-10 6 -15 11 -11 11 4 0 -1 15 -12 33 -11 17 -23 40 -26 50 -4 9 -11 17 -16
17 -5 0 -7 4 -4 9 3 5 -1 14 -9 21 -8 7 -15 19 -15 26 0 8 -4 14 -10 14 -5 0
-10 7 -10 15 0 8 -4 15 -10 15 -5 0 -10 4 -10 10 0 9 -39 72 -60 97 -5 7 -10
15 -10 19 0 4 -11 22 -25 40 -14 18 -25 37 -25 43 0 6 -4 11 -10 11 -5 0 -10
5 -10 10 0 6 -9 20 -20 32 -11 12 -20 27 -20 34 0 6 -7 14 -15 18 -8 3 -15 12
-15 21 0 8 -3 15 -7 15 -5 0 -21 21 -38 45 -16 25 -33 45 -37 45 -5 0 -8 6 -8
14 0 8 -4 16 -8 18 -4 2 -20 19 -35 39 l-28 37 38 44 c21 25 58 69 83 98 251
299 510 547 704 677 187 124 348 164 461 114z m-1263 -1027 c24 -32 51 -65 61
-75 9 -11 16 -20 15 -22 -3 -4 36 -57 59 -82 7 -7 9 -15 6 -19 -3 -3 2 -8 11
-12 9 -3 13 -10 10 -15 -3 -5 2 -12 10 -15 9 -3 16 -11 16 -16 0 -6 16 -32 35
-58 19 -26 35 -53 35 -59 0 -6 5 -11 10 -11 6 0 10 -4 10 -10 0 -9 39 -72 60
-98 6 -7 8 -17 5 -22 -3 -6 0 -10 7 -10 7 0 21 -17 31 -37 28 -62 67 -127 85
-140 9 -7 13 -13 9 -13 -4 0 -2 -10 5 -22 7 -13 11 -27 10 -31 -1 -4 5 -10 13
-13 8 -3 13 -10 10 -14 -3 -5 2 -16 11 -24 8 -9 12 -16 8 -16 -4 0 1 -9 11
-20 10 -11 14 -20 10 -20 -4 0 0 -9 10 -20 10 -11 14 -20 10 -20 -4 0 -1 -8 7
-17 8 -10 20 -33 28 -50 7 -18 17 -33 22 -33 5 0 7 -4 3 -9 -3 -5 -1 -12 5
-16 5 -3 10 -14 10 -25 0 -10 7 -20 15 -24 8 -3 12 -12 9 -21 -3 -8 -1 -15 5
-15 6 0 11 -9 11 -20 0 -11 5 -20 10 -20 6 0 10 -6 10 -13 0 -6 16 -45 35 -84
19 -40 36 -76 36 -80 1 -5 6 -17 12 -28 6 -11 12 -22 12 -25 0 -3 9 -20 18
-37 10 -18 17 -35 16 -39 -1 -5 10 -30 42 -96 5 -10 9 -25 9 -33 0 -8 5 -15
12 -15 6 0 8 -3 5 -6 -3 -4 -1 -16 5 -28 7 -11 13 -25 14 -31 1 -5 8 -23 15
-40 7 -16 13 -32 14 -35 8 -25 18 -48 26 -62 5 -10 9 -25 9 -33 0 -8 5 -15 11
-15 5 0 8 -4 5 -9 -3 -5 1 -22 10 -39 8 -17 17 -39 19 -49 2 -10 16 -49 30
-88 15 -38 28 -74 30 -80 1 -5 5 -17 8 -25 14 -37 13 -49 -10 -115 -14 -38
-25 -74 -27 -80 -1 -9 -69 -199 -83 -235 -4 -8 -7 -17 -8 -20 -1 -3 -5 -14
-10 -25 -29 -72 -117 -292 -119 -300 -1 -5 -15 -36 -29 -69 -15 -32 -27 -60
-27 -61 0 -1 -12 -29 -27 -61 -15 -33 -27 -61 -28 -64 -1 -3 -17 -36 -35 -75
-19 -38 -35 -72 -35 -75 0 -3 -8 -18 -17 -35 -8 -16 -57 -111 -108 -210 -51
-99 -101 -192 -111 -207 -11 -14 -19 -29 -19 -33 0 -3 -16 -31 -35 -61 -19
-30 -35 -56 -35 -59 0 -20 -255 -400 -359 -534 l-65 -84 -25 30 c-46 53 -65
76 -166 208 -54 72 -103 132 -107 133 -4 2 -8 8 -8 14 0 6 -18 32 -40 58 -22
26 -40 53 -40 59 0 6 -4 11 -10 11 -5 0 -10 6 -10 14 0 8 -4 16 -9 18 -10 3
-101 124 -101 133 0 3 -11 18 -25 33 -14 15 -25 30 -25 35 0 4 -11 20 -25 35
-14 15 -25 32 -25 38 0 7 -7 14 -15 18 -8 3 -15 12 -15 21 0 8 -4 15 -10 15
-5 0 -10 4 -10 10 0 5 -7 18 -15 27 -8 10 -46 63 -84 118 -39 55 -74 105 -78
111 -19 25 -34 50 -39 67 -4 9 -10 17 -14 17 -5 0 -19 17 -31 38 -13 20 -27
39 -31 40 -4 2 -8 8 -8 14 0 6 -13 27 -30 48 -16 21 -30 43 -30 49 0 6 -4 11
-10 11 -5 0 -10 7 -10 15 0 9 -7 18 -15 21 -8 4 -15 10 -15 15 0 12 -42 73
-52 77 -5 2 -8 10 -8 18 0 8 -4 14 -10 14 -5 0 -10 5 -10 10 0 12 -41 73 -52
78 -5 2 -8 10 -8 17 0 8 -6 18 -12 22 -7 4 -22 24 -32 43 -11 19 -22 37 -25
40 -10 8 -66 94 -73 113 -4 9 -12 17 -18 17 -5 0 -9 3 -8 8 2 4 -9 23 -25 43
-15 20 -27 39 -27 42 0 7 -68 106 -80 117 -3 3 -14 21 -24 40 -20 34 -28 47
-53 75 -7 7 -13 19 -13 26 0 7 48 85 107 174 60 88 112 168 118 177 5 9 37 57
70 105 33 48 62 92 64 97 4 10 15 25 39 51 6 7 12 16 12 20 0 8 43 69 53 73 4
2 7 8 7 13 0 5 12 27 28 48 15 21 34 49 42 61 8 12 27 40 43 61 15 21 27 41
27 44 0 6 11 20 38 50 6 7 12 16 12 19 0 6 57 91 75 112 6 7 35 49 65 94 30
44 97 139 148 211 50 71 92 133 92 138 0 5 3 11 8 13 12 5 72 86 72 97 0 6 4
11 8 11 4 0 16 15 27 33 10 17 21 34 25 37 3 3 26 32 50 65 68 93 252 339 264
351 6 7 40 50 76 97 36 47 68 86 72 86 4 1 26 -24 50 -55z m-3318 -75 c15 -19
39 -51 53 -71 14 -21 30 -38 34 -38 5 0 9 -7 9 -15 0 -8 5 -15 10 -15 6 0 10
-5 10 -10 0 -6 11 -21 25 -34 14 -13 25 -27 25 -32 0 -5 14 -25 30 -44 49 -57
50 -59 50 -64 0 -3 11 -17 25 -32 14 -15 25 -33 25 -40 0 -7 4 -14 9 -16 8 -2
157 -204 223 -302 7 -10 19 -24 26 -32 6 -7 12 -17 12 -23 0 -6 5 -11 10 -11
6 0 10 -7 10 -15 0 -8 4 -15 9 -15 5 0 12 -8 15 -18 3 -9 20 -33 38 -52 17
-19 30 -35 28 -35 -6 0 54 -89 65 -97 5 -4 10 -11 10 -15 0 -4 12 -24 26 -43
15 -19 35 -48 45 -65 20 -32 31 -47 52 -70 6 -7 12 -17 12 -20 0 -4 14 -24 30
-45 17 -21 30 -42 30 -48 0 -5 7 -13 16 -16 8 -3 12 -10 9 -16 -3 -6 1 -13 9
-16 9 -3 16 -10 16 -15 0 -8 117 -187 130 -199 3 -3 30 -42 59 -87 30 -46 58
-83 63 -83 4 0 7 -3 6 -7 -2 -8 30 -62 42 -73 4 -3 9 -12 13 -20 8 -17 30 -53
37 -60 3 -3 23 -32 45 -65 22 -33 43 -61 48 -63 4 -2 7 -8 7 -13 0 -5 13 -28
30 -50 16 -23 27 -47 23 -53 -4 -6 -42 -64 -85 -129 -43 -65 -78 -123 -78
-128 0 -5 -5 -9 -10 -9 -6 0 -14 -8 -18 -17 -7 -18 -62 -103 -72 -113 -10 -10
-65 -95 -72 -112 -4 -10 -12 -18 -18 -18 -5 0 -10 -5 -10 -10 0 -12 -121 -193
-132 -198 -5 -2 -8 -10 -8 -17 0 -7 -3 -15 -7 -17 -8 -3 -159 -221 -179 -259
-6 -11 -21 -31 -33 -45 -11 -13 -21 -26 -21 -29 0 -5 -80 -119 -100 -142 -5
-7 -10 -17 -10 -23 0 -6 -7 -13 -15 -16 -8 -4 -15 -10 -15 -16 0 -11 -171
-251 -182 -256 -5 -2 -8 -8 -8 -14 0 -5 -12 -26 -27 -46 -27 -36 -34 -45 -60
-76 -7 -8 -13 -19 -13 -25 0 -5 -3 -11 -7 -13 -5 -1 -41 -48 -82 -103 -41 -55
-78 -101 -83 -103 -4 -2 -8 -9 -8 -15 0 -7 -11 -24 -25 -39 -14 -15 -25 -31
-25 -37 0 -5 -4 -11 -8 -13 -4 -1 -23 -23 -42 -48 -19 -24 -40 -50 -46 -56 -5
-6 -35 -44 -65 -83 -56 -75 -72 -83 -89 -52 -5 11 -16 25 -23 33 -7 7 -42 54
-77 103 -36 50 -68 91 -72 93 -5 2 -8 8 -8 12 0 5 -24 44 -53 87 -51 75 -109
167 -133 208 -6 11 -25 44 -42 73 -18 29 -32 57 -32 62 0 6 -4 10 -9 10 -5 0
-11 8 -14 18 -4 9 -27 53 -52 97 -60 106 -245 477 -245 493 0 7 -4 12 -10 12
-5 0 -10 6 -10 14 0 8 -10 34 -21 58 -12 23 -25 52 -30 63 -4 11 -17 40 -28
65 -35 80 -123 295 -125 305 -1 6 -7 19 -13 30 -6 11 -12 23 -12 27 -2 12 -12
40 -26 78 -24 62 -57 155 -59 165 -1 6 -4 15 -8 20 -3 6 -11 27 -16 48 -10 34
-6 52 29 155 22 64 44 126 48 137 5 11 24 61 41 110 146 404 409 962 617 1309
29 49 53 92 53 97 0 5 5 9 10 9 6 0 10 4 10 10 0 15 188 300 247 375 4 6 34
45 66 88 l58 78 32 -39 c18 -21 45 -54 61 -73z m1646 -2356 c0 -7 5 -13 10
-13 6 0 10 -5 10 -10 0 -12 41 -73 53 -78 4 -2 7 -8 7 -14 0 -6 14 -27 30 -48
17 -21 30 -43 30 -49 0 -6 5 -11 10 -11 6 0 10 -5 10 -11 0 -6 14 -28 30 -49
17 -21 30 -42 30 -48 0 -6 3 -12 8 -14 10 -4 72 -97 72 -107 0 -5 3 -11 8 -13
10 -4 52 -65 52 -77 0 -5 7 -12 16 -15 9 -4 14 -9 11 -13 -4 -3 3 -14 15 -24
11 -11 17 -19 13 -19 -4 0 -1 -8 7 -17 26 -30 128 -184 128 -194 0 -5 5 -9 10
-9 6 0 13 -8 17 -17 3 -10 19 -34 35 -54 15 -20 28 -41 28 -47 0 -6 4 -12 9
-14 7 -2 111 -149 146 -206 6 -9 15 -21 20 -28 6 -6 17 -22 25 -34 8 -12 21
-28 28 -36 6 -7 12 -17 12 -23 0 -6 5 -11 10 -11 6 0 10 -4 10 -10 0 -12 299
-424 311 -428 5 -2 9 -8 9 -13 0 -6 5 -15 10 -22 50 -59 63 -76 81 -104 11
-18 26 -33 31 -33 6 0 9 -3 5 -6 -3 -4 -1 -12 6 -19 17 -18 38 -44 72 -90 16
-22 32 -42 35 -45 18 -18 80 -100 80 -106 0 -13 -133 -159 -264 -289 -145
-144 -158 -155 -266 -238 -41 -31 -80 -61 -87 -67 -6 -5 -49 -34 -95 -64 -461
-297 -926 -366 -1404 -208 -91 30 -266 110 -272 124 -2 4 -9 8 -16 8 -29 0
-288 176 -411 281 -61 51 -346 339 -382 384 l-31 41 41 50 c23 28 53 66 67 84
14 19 34 45 46 59 12 14 72 94 133 176 62 83 120 160 129 172 26 34 321 447
352 493 5 8 28 41 50 72 22 31 40 59 40 62 0 3 8 15 18 25 25 29 38 46 43 56
5 11 81 127 89 135 3 3 23 32 45 65 22 33 43 62 48 63 4 2 7 7 7 12 0 4 31 54
70 111 38 57 76 112 82 123 7 10 25 36 41 57 15 21 27 44 27 49 0 6 7 13 15
16 8 4 15 10 15 15 0 11 121 193 132 197 4 2 8 7 8 12 0 5 28 50 61 101 l62
93 33 -39 c19 -22 34 -46 34 -52z m2866 -3 c6 -33 10 -45 16 -55 3 -6 9 -27
13 -48 4 -20 11 -40 16 -43 5 -3 7 -10 4 -15 -4 -5 -3 -15 2 -21 4 -7 8 -17
10 -23 1 -5 18 -68 38 -140 19 -71 37 -139 40 -150 9 -44 11 -50 18 -62 5 -7
6 -17 2 -22 -3 -5 -1 -12 4 -16 6 -3 8 -12 5 -19 -3 -8 -1 -17 5 -20 6 -4 8
-13 5 -20 -3 -8 -1 -17 5 -20 6 -4 8 -13 5 -20 -3 -8 0 -17 5 -21 6 -3 9 -10
7 -14 -3 -4 3 -41 14 -82 22 -89 32 -138 31 -161 0 -10 5 -20 10 -23 5 -4 7
-11 3 -16 -3 -5 -1 -24 5 -42 6 -17 13 -54 16 -81 3 -27 8 -52 11 -57 3 -5 6
-28 8 -51 2 -24 6 -50 9 -58 4 -8 8 -37 11 -65 2 -27 5 -50 6 -50 3 0 7 -33
14 -105 4 -36 9 -72 11 -80 2 -8 7 -51 11 -95 3 -44 8 -96 10 -115 6 -57 14
-287 14 -395 2 -399 -75 -711 -208 -843 -53 -53 -77 -69 -136 -86 -100 -30
-260 12 -411 106 -40 25 -220 162 -260 197 -69 62 -297 292 -375 380 -41 46
-84 94 -95 106 -11 13 -32 38 -47 56 -14 19 -36 45 -47 58 -22 25 -22 26 19
72 44 49 320 441 320 455 0 1 13 22 29 46 16 24 38 59 49 79 41 74 47 84 52
89 3 3 12 19 20 35 8 17 17 32 20 35 20 20 259 485 323 630 8 19 29 66 46 103
17 38 31 70 31 72 0 3 11 28 24 57 13 29 35 82 49 118 14 36 31 79 38 95 7 17
13 32 14 35 1 3 7 19 14 35 7 17 14 35 15 40 4 13 14 38 37 93 10 23 16 42 13
42 -2 0 5 19 17 43 12 23 21 44 21 47 -1 3 3 21 10 40 11 34 11 34 21 10 5
-14 11 -32 13 -40z m-5822 -57 c10 -27 20 -55 23 -63 4 -8 7 -17 8 -20 1 -3 5
-13 8 -22 4 -10 10 -26 14 -35 3 -10 7 -20 8 -23 4 -12 17 -46 25 -65 12 -29
23 -58 26 -70 1 -5 12 -32 25 -60 12 -27 21 -50 19 -50 -2 0 3 -11 10 -25 8
-14 15 -27 15 -30 2 -7 21 -52 45 -108 12 -26 28 -63 37 -82 8 -19 21 -48 29
-64 8 -16 14 -35 14 -43 0 -7 5 -13 10 -13 6 0 10 -6 10 -14 0 -15 219 -452
268 -534 18 -29 32 -57 32 -62 0 -6 5 -10 12 -10 6 0 8 -3 5 -7 -4 -3 -1 -13
6 -22 8 -9 25 -36 38 -61 13 -25 27 -49 32 -55 17 -23 57 -86 57 -91 0 -3 20
-34 45 -70 25 -35 45 -68 45 -74 0 -5 5 -10 10 -10 6 0 10 -6 10 -14 0 -8 3
-16 8 -18 4 -1 20 -23 37 -48 16 -25 32 -47 35 -50 11 -11 60 -79 60 -83 0 -3
9 -16 20 -29 53 -61 70 -84 70 -90 0 -8 -82 -107 -183 -223 -165 -188 -433
-445 -537 -515 -19 -13 -39 -28 -45 -35 -20 -23 -192 -114 -255 -136 -183 -62
-320 4 -403 193 -27 60 -73 229 -81 298 -3 25 -9 70 -13 100 -10 75 -10 533 1
645 5 50 10 106 12 125 6 65 14 145 19 178 3 17 7 47 10 65 3 17 12 77 20 132
8 55 17 111 20 125 2 14 7 36 10 50 2 14 7 39 10 55 2 17 14 75 25 130 12 55
23 109 24 120 10 64 102 428 147 580 17 55 32 109 35 120 16 61 45 155 48 155
2 0 11 -21 20 -47z"/>
</g>
</svg>
