<?xml version="1.0" encoding="utf-8"?>
<svg viewBox="0 0 500 500" xmlns="http://www.w3.org/2000/svg">
  <path style="fill: rgb(216, 216, 216); opacity: 0.5;" d="M 272.599 127.631 C 324.375 215.554 385.194 199.067 388.796 240.864 C 392.398 282.661 299.85 300.505 309.362 325.998 C 318.874 351.491 346.145 400.825 251.584 430.816 C 157.023 460.807 48.83 366.086 110.089 323.621 C 171.348 281.156 114.387 235.637 114.741 180.544 C 115.095 125.451 220.823 39.708 272.599 127.631 Z"/>
  <path style="fill: rgb(216, 216, 216); opacity: 0.5;" d="M 281.451 94.809 C 333.227 182.732 394.046 166.245 397.648 208.042 C 401.25 249.839 308.702 267.683 318.214 293.176 C 327.726 318.669 354.997 368.003 260.436 397.994 C 165.875 427.985 57.682 333.264 118.941 290.799 C 180.2 248.334 123.239 202.815 123.593 147.722 C 123.947 92.629 229.675 6.886 281.451 94.809 Z" transform="matrix(-0.052336, 0.99863, -0.99863, -0.052336, 492.528108, -6.611402)"/>
  <path style="fill: rgb(216, 216, 216); opacity: 0.5;" d="M 280.822 115.874 C 332.598 203.797 393.417 187.31 397.019 229.107 C 400.621 270.904 308.073 288.748 317.585 314.241 C 327.097 339.734 354.368 389.068 259.807 419.059 C 165.246 449.05 57.053 354.329 118.312 311.864 C 179.571 269.399 122.61 223.88 122.964 168.787 C 123.318 113.694 229.046 27.951 280.822 115.874 Z" transform="matrix(0.707107, 0.707107, -0.707107, 0.707107, 250.669291, -102.258893)"/>
</svg>